<svg width="3168" height="500" viewBox="0 0 3168 500" fill="none" xmlns="http://www.w3.org/2000/svg">
<path d="M1651 0L1707.13 172.746H1888.76L1741.82 279.508L1797.95 452.254L1651 345.492L1504.05 452.254L1560.18 279.508L1413.24 172.746H1594.87L1651 0Z" fill="url(#paint0_linear_23_47)"/>
<path d="M2236 0L2292.13 172.746H2473.76L2326.82 279.508L2382.95 452.254L2236 345.492L2089.05 452.254L2145.18 279.508L1998.24 172.746H2179.87L2236 0Z" fill="white"/>
<path d="M2848 0L2904.13 172.746H3085.76L2938.82 279.508L2994.95 452.254L2848 345.492L2701.05 452.254L2757.18 279.508L2610.24 172.746H2791.87L2848 0Z" fill="white"/>
<path d="M344 0L400.129 172.746H581.764L434.818 279.508L490.946 452.254L344 345.492L197.054 452.254L253.182 279.508L106.236 172.746H287.872L344 0Z" fill="#DBFF00"/>
<path d="M1012 0L1068.13 172.746H1249.76L1102.82 279.508L1158.95 452.254L1012 345.492L865.054 452.254L921.182 279.508L774.236 172.746H955.872L1012 0Z" fill="#DBFF00"/>
<path d="M1012 0L1068.13 172.746H1249.76L1102.82 279.508L1158.95 452.254L1012 345.492L865.054 452.254L921.182 279.508L774.236 172.746H955.872L1012 0Z" fill="#DBFF00"/>
<defs>
<linearGradient id="paint0_linear_23_47" x1="1653.5" y1="481.5" x2="1640.5" y2="481.5" gradientUnits="userSpaceOnUse">
<stop stop-color="white"/>
<stop offset="1" stop-color="#DBFF00"/>
</linearGradient>
</defs>
</svg>
