<svg width="134" height="93" viewBox="0 0 134 93" fill="none" xmlns="http://www.w3.org/2000/svg">
<g clip-path="url(#clip0_17_326)" filter="url(#filter0_d_17_326)">
<g filter="url(#filter1_d_17_326)">
<path d="M64.1244 19.7059C64.0205 18.7945 64.5949 17.9421 65.4834 17.689L114.439 3.73856C115.669 3.38811 116.889 4.32334 116.856 5.59252L114.88 83.0544C114.848 84.3415 113.55 85.2151 112.333 84.7707L70.8464 69.6171C70.1743 69.3715 69.6989 68.7707 69.6188 68.0638L64.1244 19.7059Z" fill="#D79E1F"/>
<path d="M11.5238 10.0443C11.1949 8.70254 12.3879 7.47873 13.7504 7.76016L62.603 17.8502C63.4034 18.0156 64.0071 18.6724 64.0988 19.479L69.5993 67.7412C69.7038 68.6555 69.1258 69.5103 68.233 69.7613L30.7632 80.2843C29.7299 80.5741 28.6605 79.9551 28.4067 78.9196L11.5238 10.0443Z" fill="#242424"/>
<path d="M62.4783 17.8242L66.4194 17.4302L71.155 69.6904L67.7637 69.8116L62.4783 17.8242Z" fill="url(#paint0_linear_17_326)"/>
<path d="M65.5946 31.1384C65.4333 28.7341 66.9535 26.5334 69.2718 25.8152L95.3801 17.7282C98.6797 16.7062 102.058 19.0685 102.197 22.495L103.624 57.5754C103.756 60.8128 100.911 63.3846 97.6739 62.9535L71.7172 59.4963C69.2394 59.1664 67.3391 57.15 67.1729 54.675L65.5946 31.1384Z" fill="black" fill-opacity="0.22"/>
<path d="M36.5833 35.9322C36.1099 32.7813 38.5699 29.9496 41.7808 29.9496H69.097C71.6725 29.9496 73.8686 31.8017 74.2829 34.3238L77.5446 54.1551C77.9894 56.8601 76.2473 59.4451 73.5582 60.0709L46.8924 66.2759C43.9008 66.9719 40.9481 64.9839 40.4951 61.9684L36.5833 35.9322Z" fill="white" fill-opacity="0.16"/>
<path d="M57.5452 42.4153C57.4888 41.8509 57.2466 41.4124 56.8188 41.0999C56.391 40.7873 55.8104 40.6311 55.077 40.6311C54.5786 40.6311 54.1578 40.701 53.8146 40.841C53.4714 40.9763 53.2082 41.1652 53.0248 41.4078C52.8461 41.6503 52.7568 41.9255 52.7568 42.2334C52.7474 42.4899 52.8015 42.7138 52.919 42.9051C53.0412 43.0963 53.2082 43.262 53.4197 43.4019C53.6312 43.5371 53.8757 43.6561 54.1531 43.7587C54.4305 43.8567 54.7267 43.9407 55.0417 44.0106L56.3393 44.3185C56.9693 44.4584 57.5475 44.645 58.0741 44.8783C58.6006 45.1115 59.0567 45.3984 59.4422 45.7389C59.8277 46.0794 60.1262 46.4806 60.3378 46.9424C60.554 47.4042 60.6646 47.9337 60.6692 48.5307C60.6646 49.4077 60.4389 50.168 59.9922 50.8117C59.5503 51.4508 58.9109 51.9476 58.0741 52.3021C57.2419 52.652 56.2382 52.8269 55.0628 52.8269C53.8969 52.8269 52.8814 52.6496 52.0163 52.2952C51.156 51.9406 50.4837 51.4158 49.9994 50.7208C49.5199 50.0211 49.2684 49.1558 49.2449 48.1249H52.1997C52.2326 48.6054 52.3713 49.0065 52.6158 49.3284C52.8649 49.6456 53.1964 49.8858 53.6101 50.0491C54.0285 50.2077 54.501 50.287 55.0276 50.287C55.5447 50.287 55.9937 50.2123 56.3745 50.0631C56.7601 49.9138 57.0586 49.7062 57.2701 49.4404C57.4817 49.1745 57.5875 48.8689 57.5875 48.5238C57.5875 48.2019 57.4911 47.9313 57.2984 47.7121C57.1103 47.4929 56.8329 47.3062 56.4662 47.1523C56.1042 46.9984 55.6599 46.8585 55.1334 46.7325L53.5607 46.3406C52.3431 46.0468 51.3817 45.5873 50.6765 44.9622C49.9713 44.3372 49.621 43.4952 49.6257 42.4363C49.621 41.5687 49.8537 40.8106 50.3238 40.1622C50.7987 39.5139 51.4499 39.0077 52.2773 38.6439C53.1047 38.2801 54.045 38.0981 55.0981 38.0981C56.17 38.0981 57.1056 38.2801 57.9048 38.6439C58.7088 39.0077 59.334 39.5139 59.7807 40.1622C60.2273 40.8106 60.4577 41.5617 60.4718 42.4153H57.5452Z" fill="#D79E1F"/>
<path d="M79.5897 34.4139H83.3555L87.3334 44.0419H87.5026L91.4799 34.4139H95.2457V48.7439H92.2834V39.4169H92.1636L88.4259 48.6739H86.4095L82.6718 39.3819H82.552V48.7439H79.5897V34.4139Z" fill="#D79E1F"/>
</g>
</g>
<defs>
<filter id="filter0_d_17_326" x="-4" y="0" width="142" height="97" filterUnits="userSpaceOnUse" color-interpolation-filters="sRGB">
<feFlood flood-opacity="0" result="BackgroundImageFix"/>
<feColorMatrix in="SourceAlpha" type="matrix" values="0 0 0 0 0 0 0 0 0 0 0 0 0 0 0 0 0 0 127 0" result="hardAlpha"/>
<feOffset dy="4"/>
<feGaussianBlur stdDeviation="2"/>
<feComposite in2="hardAlpha" operator="out"/>
<feColorMatrix type="matrix" values="0 0 0 0 0 0 0 0 0 0 0 0 0 0 0 0 0 0 0.25 0"/>
<feBlend mode="normal" in2="BackgroundImageFix" result="effect1_dropShadow_17_326"/>
<feBlend mode="normal" in="SourceGraphic" in2="effect1_dropShadow_17_326" result="shape"/>
</filter>
<filter id="filter1_d_17_326" x="7.46863" y="3.66431" width="113.388" height="89.2235" filterUnits="userSpaceOnUse" color-interpolation-filters="sRGB">
<feFlood flood-opacity="0" result="BackgroundImageFix"/>
<feColorMatrix in="SourceAlpha" type="matrix" values="0 0 0 0 0 0 0 0 0 0 0 0 0 0 0 0 0 0 127 0" result="hardAlpha"/>
<feOffset dy="4"/>
<feGaussianBlur stdDeviation="2"/>
<feComposite in2="hardAlpha" operator="out"/>
<feColorMatrix type="matrix" values="0 0 0 0 0 0 0 0 0 0 0 0 0 0 0 0 0 0 0.25 0"/>
<feBlend mode="normal" in2="BackgroundImageFix" result="effect1_dropShadow_17_326"/>
<feBlend mode="normal" in="SourceGraphic" in2="effect1_dropShadow_17_326" result="shape"/>
</filter>
<linearGradient id="paint0_linear_17_326" x1="66.8166" y1="17.4302" x2="52.722" y2="25.1619" gradientUnits="userSpaceOnUse">
<stop stop-color="#D79E1F"/>
<stop offset="1" stop-color="#242424"/>
</linearGradient>
<clipPath id="clip0_17_326">
<rect width="134" height="89" fill="white"/>
</clipPath>
</defs>
</svg>
