<svg width="31" height="30" viewBox="0 0 31 30" fill="none" xmlns="http://www.w3.org/2000/svg">
<path d="M12.6468 2.78115C13.5449 0.0172229 17.4551 0.0172186 18.3532 2.78115L19.878 7.47417C20.2796 8.71024 21.4315 9.54712 22.7312 9.54712H27.6657C30.5719 9.54712 31.7802 13.266 29.4291 14.9742L25.437 17.8746C24.3855 18.6385 23.9455 19.9926 24.3471 21.2287L25.872 25.9217C26.7701 28.6857 23.6066 30.984 21.2555 29.2758L17.2634 26.3754C16.2119 25.6115 14.7881 25.6115 13.7366 26.3754L9.74453 29.2758C7.39339 30.984 4.22995 28.6857 5.128 25.9217L6.65285 21.2287C7.05448 19.9926 6.6145 18.6385 5.56304 17.8746L1.57092 14.9742C-0.780216 13.266 0.428109 9.54712 3.33428 9.54712H8.26881C9.56849 9.54712 10.7204 8.71024 11.122 7.47417L12.6468 2.78115Z" fill="black"/>
</svg>
