<svg width="812" height="552" viewBox="0 0 812 552" fill="none" xmlns="http://www.w3.org/2000/svg">
<g clip-path="url(#clip0_17_272)">
<path d="M728.451 538.904C710.239 552.021 686.639 552.679 663.826 551.068C660.641 550.843 657.478 550.579 654.344 550.295C654.325 550.29 654.3 550.292 654.281 550.287C654.131 550.273 653.98 550.258 653.836 550.25C653.189 550.189 652.542 550.129 651.901 550.068L652.052 550.357L652.527 551.253C652.357 550.953 652.186 550.659 652.015 550.359C651.965 550.269 651.909 550.18 651.859 550.089C645.949 539.807 640.088 529.148 638.593 517.407C637.047 505.22 641.39 491.421 652.118 485.431C653.525 484.648 655.015 484.024 656.56 483.571C657.202 483.376 657.852 483.218 658.51 483.078C662.533 482.185 666.722 482.379 670.645 483.641C674.568 484.903 678.084 487.187 680.832 490.258C683.58 493.329 685.46 497.076 686.279 501.114C687.098 505.153 686.827 509.336 685.493 513.235C694.588 503.911 692.891 488.784 689.754 476.142C686.61 463.5 682.805 449.433 689.199 438.079C692.753 431.758 699.003 427.837 706.016 426.257C706.232 426.211 706.447 426.165 706.662 426.125C715.019 424.432 723.707 425.954 730.99 430.387C744.402 438.836 751.29 454.857 753.525 470.551C757.128 495.805 749.156 523.989 728.451 538.904Z" fill="#F2F2F2"/>
<path d="M722.571 498.42C722.042 503.991 720.704 509.454 718.598 514.639C716.658 519.226 714.042 523.498 710.838 527.313C704.176 535.108 695.74 541.19 686.238 545.047C679.051 547.99 671.521 550.013 663.826 551.068C660.641 550.843 657.478 550.579 654.344 550.295C654.325 550.29 654.3 550.292 654.281 550.287C654.131 550.272 653.98 550.258 653.836 550.25C653.189 550.189 652.542 550.129 651.901 550.068L652.052 550.356L652.527 551.252C652.357 550.953 652.186 550.659 652.015 550.359C651.965 550.269 651.909 550.179 651.859 550.089C657.627 544.343 661.934 537.298 664.419 529.545C666.903 521.792 667.493 513.556 666.138 505.528C664.72 497.557 661.439 490.033 656.56 483.571C657.202 483.376 657.852 483.218 658.51 483.078C660.364 485.612 661.99 488.306 663.369 491.126C668.32 501.185 669.899 512.57 667.873 523.597C665.991 533.574 661.299 542.808 654.351 550.213C654.959 550.17 655.574 550.121 656.175 550.066C667.562 549.101 678.926 546.654 689.255 541.64C698.083 537.459 705.748 531.171 711.574 523.331C717.829 514.706 720.585 504.331 721.059 493.786C721.423 482.426 720.232 471.069 717.519 460.031C714.888 448.776 710.889 437.886 705.612 427.602C705.494 427.369 705.47 427.099 705.545 426.849C705.621 426.599 705.789 426.387 706.016 426.257C706.206 426.13 706.438 426.082 706.662 426.125C706.772 426.154 706.874 426.207 706.96 426.281C707.046 426.355 707.115 426.447 707.16 426.551C707.811 427.821 708.45 429.093 709.065 430.378C714.183 441.085 717.952 452.386 720.284 464.022C722.547 475.247 723.756 486.99 722.571 498.42Z" fill="white"/>
<path d="M33.8777 175.451C33.3355 175.451 32.7982 175.349 32.2931 175.152C31.4764 174.838 30.7745 174.284 30.2805 173.562C29.7866 172.84 29.5241 171.984 29.5278 171.11V125.8C29.5261 124.266 28.916 122.796 27.8313 121.712C26.7467 120.627 25.2761 120.017 23.7421 120.015H14.462C10.6277 120.011 6.95178 118.486 4.24056 115.776C1.52935 113.065 0.00429723 109.39 0 105.556V14.4592C0.00429978 10.6257 1.52935 6.95045 4.24056 4.23975C6.95178 1.52906 10.6277 0.0042964 14.462 0H341.799C345.634 0.00430149 349.309 1.52906 352.021 4.23975C354.732 6.95045 356.257 10.6257 356.261 14.4592V105.556C356.257 109.39 354.732 113.065 352.021 115.775C349.309 118.486 345.634 120.011 341.799 120.015H89.1415C88.3395 120.016 87.5464 120.183 86.8122 120.506C86.0781 120.829 85.419 121.301 84.8764 121.891L37.064 174.041C36.6602 174.484 36.1683 174.839 35.6197 175.082C35.071 175.325 34.4777 175.451 33.8777 175.451ZM14.462 1.9267C11.1387 1.93045 7.95255 3.25205 5.60261 5.60153C3.25267 7.95102 1.93082 11.1365 1.92707 14.4592V105.556C1.93083 108.879 3.25267 112.064 5.60261 114.414C7.95254 116.763 11.1387 118.085 14.462 118.089H23.7421C25.787 118.091 27.7475 118.904 29.1934 120.35C30.6393 121.795 31.4526 123.756 31.4549 125.8V171.11C31.4549 171.595 31.6017 172.07 31.876 172.471C32.1502 172.871 32.5392 173.18 32.992 173.356C33.4448 173.532 33.9402 173.567 34.4133 173.457C34.8864 173.347 35.3152 173.097 35.6435 172.738L83.4559 120.589C84.1792 119.802 85.0579 119.173 86.0365 118.743C87.0151 118.313 88.0724 118.09 89.1415 118.089H341.799C345.123 118.085 348.309 116.763 350.659 114.414C353.009 112.064 354.33 108.879 354.334 105.556V14.4592C354.33 11.1365 353.009 7.95102 350.659 5.60153C348.309 3.25205 345.123 1.93045 341.799 1.9267H14.462Z" fill="#CCCCCC"/>
<path d="M35.4736 41.0293C42.4627 41.0293 48.1284 35.3647 48.1284 28.377C48.1284 21.3893 42.4627 15.7246 35.4736 15.7246C28.4846 15.7246 22.8188 21.3893 22.8188 28.377C22.8188 35.3647 28.4846 41.0293 35.4736 41.0293Z" fill="#CCCCCC"/>
<path d="M327.035 98.3865H29.2259C28.3389 98.3876 27.4604 98.2138 26.6406 97.8752C25.8208 97.5365 25.0759 97.0396 24.4483 96.4129C23.8207 95.7862 23.3228 95.042 22.9832 94.2228C22.6435 93.4035 22.4686 92.5254 22.4686 91.6386C22.4686 90.7517 22.6435 89.8736 22.9832 89.0544C23.3228 88.2352 23.8207 87.4909 24.4483 86.8642C25.0759 86.2375 25.8208 85.7406 26.6406 85.402C27.4604 85.0633 28.3389 84.8896 29.2259 84.8906H327.035C327.922 84.8896 328.801 85.0633 329.621 85.402C330.44 85.7406 331.185 86.2375 331.813 86.8642C332.441 87.4909 332.938 88.2352 333.278 89.0544C333.618 89.8736 333.793 90.7517 333.793 91.6386C333.793 92.5254 333.618 93.4035 333.278 94.2228C332.938 95.042 332.441 95.7862 331.813 96.4129C331.185 97.0396 330.44 97.5365 329.621 97.8752C328.801 98.2138 327.922 98.3876 327.035 98.3865Z" fill="#CCCCCC"/>
<path d="M230.015 69.7078H29.2259C28.3389 69.7088 27.4604 69.5351 26.6406 69.1964C25.8208 68.8578 25.0759 68.3609 24.4483 67.7342C23.8207 67.1075 23.3228 66.3632 22.9832 65.544C22.6435 64.7248 22.4686 63.8467 22.4686 62.9598C22.4686 62.073 22.6435 61.1949 22.9832 60.3757C23.3228 59.5564 23.8207 58.8122 24.4483 58.1855C25.0759 57.5588 25.8208 57.0619 26.6406 56.7233C27.4604 56.3846 28.3389 56.2109 29.2259 56.2119H230.015C230.902 56.2109 231.781 56.3846 232.601 56.7233C233.42 57.0619 234.165 57.5588 234.793 58.1855C235.42 58.8122 235.918 59.5564 236.258 60.3757C236.598 61.1949 236.773 62.073 236.773 62.9598C236.773 63.8467 236.598 64.7248 236.258 65.544C235.918 66.3632 235.42 67.1075 234.793 67.7342C234.165 68.3609 233.42 68.8578 232.601 69.1964C231.781 69.5351 230.902 69.7088 230.015 69.7078Z" fill="#CCCCCC"/>
<path d="M33.8777 496.821C33.3355 496.821 32.7982 496.719 32.2931 496.522C31.4764 496.208 30.7745 495.654 30.2806 494.932C29.7867 494.21 29.5241 493.354 29.5278 492.48V447.17C29.5261 445.636 28.916 444.166 27.8313 443.082C26.7467 441.997 25.2761 441.387 23.7421 441.385H14.462C10.6278 441.381 6.95179 439.856 4.24058 437.146C1.52936 434.435 0.00430743 430.76 0 426.926V335.829C0.00429977 331.996 1.52935 328.321 4.24056 325.61C6.95178 322.899 10.6277 321.374 14.462 321.37H341.799C345.634 321.374 349.309 322.899 352.021 325.61C354.732 328.321 356.257 331.996 356.261 335.829V426.926C356.257 430.76 354.732 434.435 352.021 437.146C349.309 439.856 345.634 441.381 341.799 441.385H89.1415C88.3395 441.386 87.5464 441.553 86.8122 441.876C86.0781 442.199 85.419 442.671 84.8764 443.261L37.064 495.411C36.6602 495.854 36.1683 496.209 35.6197 496.452C35.071 496.695 34.4777 496.821 33.8777 496.821ZM14.462 323.297C11.1387 323.301 7.95255 324.622 5.60261 326.972C3.25267 329.321 1.93082 332.507 1.92707 335.829V426.926C1.93082 430.249 3.25267 433.434 5.60261 435.784C7.95254 438.133 11.1387 439.455 14.462 439.459H23.7421C25.787 439.461 27.7475 440.274 29.1934 441.72C30.6393 443.166 31.4526 445.126 31.4549 447.17V492.48C31.4549 492.965 31.6017 493.44 31.876 493.841C32.1502 494.242 32.5392 494.55 32.992 494.726C33.4448 494.902 33.9402 494.938 34.4133 494.827C34.8864 494.717 35.3152 494.467 35.6435 494.109L83.4559 441.959C84.1792 441.172 85.0579 440.544 86.0365 440.113C87.0151 439.683 88.0724 439.46 89.1415 439.459H341.799C345.123 439.455 348.309 438.133 350.659 435.784C353.009 433.434 354.33 430.249 354.334 426.926V335.829C354.33 332.507 353.009 329.321 350.659 326.972C348.309 324.622 345.123 323.301 341.799 323.297L14.462 323.297Z" fill="#CCCCCC"/>
<path d="M517.267 329.81C516.667 329.81 516.074 329.684 515.525 329.441C514.977 329.198 514.485 328.843 514.081 328.399L466.268 276.25C465.726 275.66 465.067 275.188 464.333 274.865C463.599 274.542 462.806 274.375 462.004 274.374H209.346C205.512 274.37 201.836 272.845 199.124 270.134C196.413 267.424 194.888 263.748 194.884 259.915V168.818C194.888 164.985 196.413 161.309 199.124 158.599C201.836 155.888 205.512 154.363 209.346 154.359H536.683C540.517 154.363 544.193 155.888 546.904 158.599C549.616 161.309 551.141 164.985 551.145 168.818V259.915C551.141 263.748 549.616 267.424 546.904 270.134C544.193 272.845 540.517 274.37 536.683 274.374H527.403C525.869 274.376 524.398 274.986 523.314 276.07C522.229 277.155 521.619 278.625 521.617 280.159V325.468C521.621 326.343 521.358 327.198 520.864 327.92C520.37 328.642 519.668 329.197 518.852 329.51C518.347 329.708 517.809 329.81 517.267 329.81ZM209.346 156.286C206.022 156.289 202.836 157.611 200.486 159.96C198.136 162.31 196.815 165.495 196.811 168.818V259.915C196.815 263.238 198.136 266.423 200.486 268.773C202.836 271.122 206.022 272.444 209.346 272.447H462.004C463.073 272.449 464.13 272.671 465.108 273.102C466.087 273.532 466.966 274.161 467.689 274.948L515.501 327.097C515.83 327.455 516.259 327.706 516.732 327.816C517.205 327.926 517.7 327.891 518.153 327.715C518.606 327.539 518.995 327.23 519.269 326.829C519.543 326.428 519.69 325.954 519.69 325.468V280.159C519.692 278.114 520.506 276.154 521.952 274.709C523.397 273.263 525.358 272.45 527.403 272.447H536.683C540.006 272.444 543.192 271.122 545.542 268.773C547.892 266.423 549.214 263.238 549.218 259.915V168.818C549.214 165.495 547.892 162.31 545.542 159.96C543.192 157.611 540.006 156.289 536.683 156.286L209.346 156.286Z" fill="#3F3D56"/>
<path d="M35.4736 362.399C42.4627 362.399 48.1284 356.735 48.1284 349.747C48.1284 342.759 42.4627 337.095 35.4736 337.095C28.4846 337.095 22.8188 342.759 22.8188 349.747C22.8188 356.735 28.4846 362.399 35.4736 362.399Z" fill="#CCCCCC"/>
<path d="M327.035 419.757H29.2259C28.3389 419.758 27.4604 419.584 26.6406 419.245C25.8208 418.907 25.0759 418.41 24.4483 417.783C23.8207 417.156 23.3228 416.412 22.9832 415.593C22.6435 414.774 22.4686 413.896 22.4686 413.009C22.4686 412.122 22.6435 411.244 22.9832 410.424C23.3228 409.605 23.8207 408.861 24.4483 408.234C25.0759 407.608 25.8208 407.111 26.6406 406.772C27.4604 406.433 28.3389 406.26 29.2259 406.261H327.035C328.825 406.261 330.542 406.972 331.808 408.237C333.073 409.503 333.785 411.219 333.785 413.009C333.785 414.798 333.073 416.515 331.808 417.78C330.542 419.046 328.825 419.757 327.035 419.757Z" fill="#CCCCCC"/>
<path d="M230.015 391.078H29.2259C28.3389 391.079 27.4604 390.905 26.6406 390.567C25.8208 390.228 25.0759 389.731 24.4483 389.104C23.8207 388.478 23.3228 387.733 22.9832 386.914C22.6435 386.095 22.4686 385.217 22.4686 384.33C22.4686 383.443 22.6435 382.565 22.9832 381.746C23.3228 380.927 23.8207 380.182 24.4483 379.556C25.0759 378.929 25.8208 378.432 26.6406 378.093C27.4604 377.755 28.3389 377.581 29.2259 377.582H230.015C230.902 377.581 231.781 377.755 232.601 378.093C233.42 378.432 234.165 378.929 234.793 379.556C235.42 380.182 235.918 380.927 236.258 381.746C236.598 382.565 236.773 383.443 236.773 384.33C236.773 385.217 236.598 386.095 236.258 386.914C235.918 387.733 235.42 388.478 234.793 389.104C234.165 389.731 233.42 390.228 232.601 390.567C231.781 390.905 230.902 391.079 230.015 391.078Z" fill="#CCCCCC"/>
<path d="M230.357 194.544C237.346 194.544 243.012 188.88 243.012 181.892C243.012 174.904 237.346 169.24 230.357 169.24C223.368 169.24 217.703 174.904 217.703 181.892C217.703 188.88 223.368 194.544 230.357 194.544Z" fill="#3F3D56"/>
<path d="M521.919 251.902H224.11C222.32 251.902 220.603 251.191 219.337 249.926C218.072 248.66 217.36 246.944 217.36 245.154C217.36 243.365 218.072 241.648 219.337 240.383C220.603 239.117 222.32 238.406 224.11 238.406H521.919C523.709 238.406 525.426 239.117 526.691 240.383C527.957 241.648 528.668 243.365 528.668 245.154C528.668 246.944 527.957 248.66 526.691 249.926C525.426 251.191 523.709 251.902 521.919 251.902Z" fill="#D79E1F"/>
<path d="M424.899 223.223H224.11C223.223 223.224 222.344 223.051 221.524 222.712C220.705 222.373 219.96 221.877 219.332 221.25C218.704 220.623 218.207 219.879 217.867 219.06C217.527 218.24 217.352 217.362 217.352 216.475C217.352 215.589 217.527 214.711 217.867 213.891C218.207 213.072 218.704 212.328 219.332 211.701C219.96 211.074 220.705 210.578 221.524 210.239C222.344 209.9 223.223 209.726 224.11 209.728H424.899C425.786 209.726 426.665 209.9 427.484 210.239C428.304 210.578 429.049 211.074 429.677 211.701C430.304 212.328 430.802 213.072 431.142 213.891C431.481 214.711 431.656 215.589 431.656 216.475C431.656 217.362 431.481 218.24 431.142 219.06C430.802 219.879 430.304 220.623 429.677 221.25C429.049 221.877 428.304 222.373 427.484 222.712C426.665 223.051 425.786 223.224 424.899 223.223Z" fill="#D79E1F"/>
<path d="M521.789 347.152C522.079 345.765 522.668 344.459 523.517 343.325C524.366 342.192 525.453 341.258 526.701 340.589C527.95 339.921 529.33 339.534 530.745 339.457C532.159 339.379 533.573 339.613 534.888 340.141L557.491 314.173L562.293 331.406L540.092 353.424C539.058 355.573 537.272 357.268 535.071 358.188C532.871 359.108 530.41 359.189 528.154 358.416C525.898 357.642 524.004 356.069 522.831 353.993C521.658 351.917 521.287 349.483 521.789 347.152Z" fill="#FFB8B8"/>
<path d="M645.848 225.291C658.918 225.291 669.514 214.698 669.514 201.63C669.514 188.563 658.918 177.969 645.848 177.969C632.778 177.969 622.183 188.563 622.183 201.63C622.183 214.698 632.778 225.291 645.848 225.291Z" fill="#FFB8B8"/>
<path d="M618.046 527.312L606.234 527.311L600.614 481.756L618.049 481.757L618.046 527.312Z" fill="#FFB8B8"/>
<path d="M621.059 538.761L582.97 538.759V538.277C582.97 536.331 583.354 534.403 584.099 532.605C584.844 530.807 585.936 529.173 587.312 527.796C588.689 526.42 590.323 525.328 592.122 524.583C593.921 523.838 595.849 523.455 597.796 523.455L621.06 523.456L621.059 538.761Z" fill="#2F2E41"/>
<path d="M653.697 539.836L641.885 539.835L640.249 495.368L653.7 494.281L653.697 539.836Z" fill="#FFB8B8"/>
<path d="M656.71 551.284L618.621 551.283V550.801C618.621 548.855 619.004 546.927 619.749 545.129C620.494 543.331 621.586 541.697 622.963 540.32C624.34 538.944 625.974 537.852 627.773 537.107C629.571 536.362 631.499 535.979 633.446 535.979L656.711 535.98L656.71 551.284Z" fill="#2F2E41"/>
<path d="M650.338 531.523L641.139 530.44C640.095 530.315 639.133 529.816 638.429 529.036C637.725 528.256 637.327 527.247 637.31 526.197L635.586 406.415C635.581 406.076 635.457 405.75 635.236 405.493C635.014 405.236 634.71 405.065 634.375 405.01C634.041 404.955 633.697 405.02 633.406 405.192C633.114 405.365 632.892 405.634 632.779 405.954L620.016 441.983L620.929 509.515C620.944 510.63 620.529 511.708 619.771 512.524C619.012 513.341 617.967 513.834 616.854 513.901L604.845 514.411C603.746 514.473 602.665 514.118 601.817 513.417C600.969 512.716 600.418 511.72 600.273 510.63L594.001 434.235L593.997 434.187L603.514 354.403L674.992 359.574L655.15 527.726C655.025 528.779 654.517 529.75 653.724 530.455C652.932 531.16 651.908 531.551 650.847 531.553C650.677 531.553 650.507 531.543 650.338 531.523Z" fill="#2F2E41"/>
<path d="M603.819 361.476C603.178 361.133 602.633 360.634 602.236 360.025C601.84 359.415 601.604 358.715 601.55 357.99C601.55 357.99 607.978 318.026 610.333 317.276L605.18 274.539C604.562 269.327 604.993 264.043 606.446 258.999C607.899 253.955 610.345 249.252 613.64 245.166C616.814 241.202 620.758 237.922 625.235 235.524C629.711 233.127 634.627 231.66 639.686 231.215C640.407 231.15 641.123 231.1 641.835 231.066C647.934 230.739 654.021 231.89 659.579 234.419C665.137 236.949 670.002 240.783 673.761 245.595C677.66 250.449 680.328 256.172 681.539 262.279C682.751 268.385 682.469 274.693 680.717 280.667L677.827 290.724V361.006C677.824 361.692 677.66 362.368 677.348 362.979C677.037 363.591 676.586 364.12 676.033 364.526C667.033 371.13 656.862 373.465 646.977 373.465C628.274 373.465 610.597 365.103 603.819 361.476Z" fill="#D79E1F"/>
<path d="M548.33 348.614L535.898 339.32C535.41 338.955 535.005 338.492 534.708 337.961C534.411 337.429 534.23 336.841 534.176 336.234C534.121 335.628 534.196 335.017 534.393 334.441C534.591 333.865 534.908 333.337 535.323 332.892L609.383 253.441C611.76 250.912 614.966 249.32 618.417 248.953C621.868 248.587 625.337 249.469 628.193 251.441C629.933 252.654 631.384 254.236 632.443 256.073C633.502 257.911 634.143 259.959 634.32 262.073C634.498 264.186 634.207 266.313 633.468 268.301C632.73 270.289 631.562 272.09 630.048 273.575L553.963 348.237C553.295 348.899 552.428 349.324 551.495 349.448C550.562 349.571 549.614 349.385 548.797 348.919C548.635 348.828 548.479 348.726 548.33 348.614Z" fill="#D79E1F"/>
<path d="M643.478 338.095C644.021 336.787 644.844 335.614 645.89 334.659C646.936 333.704 648.179 332.99 649.53 332.567C650.882 332.143 652.31 332.022 653.714 332.21C655.118 332.399 656.464 332.892 657.656 333.657L684.718 312.373L686.211 330.2L660.284 347.678C658.866 349.596 656.795 350.927 654.461 351.419C652.128 351.912 649.695 351.531 647.623 350.35C645.552 349.169 643.985 347.269 643.221 345.01C642.457 342.751 642.548 340.291 643.478 338.095Z" fill="#FFB8B8"/>
<path d="M667.7 346.404C666.984 346.181 666.338 345.776 665.827 345.226C665.316 344.677 664.958 344.004 664.787 343.274L662.053 331.795C661.853 330.98 661.897 330.124 662.18 329.334C662.462 328.544 662.972 327.854 663.644 327.351L682.036 307.464L654.982 265.754C652.934 263.233 651.78 260.105 651.699 256.859C651.619 253.612 652.617 250.43 654.537 247.811C656.067 245.724 658.123 244.078 660.494 243.041C662.866 242.004 665.469 241.612 668.041 241.905C670.613 242.198 673.062 243.165 675.14 244.709C677.218 246.252 678.85 248.318 679.872 250.695L705.025 299.644C707.525 304.507 708.149 310.12 706.777 315.413C705.405 320.706 702.133 325.31 697.585 328.347L671.881 345.514C671.094 346.218 670.075 346.608 669.019 346.609C668.571 346.608 668.127 346.539 667.7 346.404Z" fill="#D79E1F"/>
<path d="M663.384 222.782C662.826 223.117 662.199 223.319 661.551 223.372C660.903 223.426 660.251 223.329 659.646 223.09C659.041 222.851 658.499 222.476 658.063 221.995C657.626 221.513 657.306 220.937 657.128 220.312L657.113 220.252C656.631 218.284 657.011 216.223 657.136 214.2C657.26 212.177 657.05 209.957 655.665 208.477C653.082 205.719 648.521 207.213 644.804 206.532C642.627 206.059 640.696 204.808 639.375 203.014C638.053 201.22 637.43 199.006 637.623 196.786C637.674 196.365 637.755 195.944 637.845 195.523C638.072 194.456 638.048 193.352 637.776 192.296C637.503 191.24 636.99 190.261 636.276 189.437C635.561 188.613 634.666 187.965 633.659 187.545C632.652 187.125 631.562 186.945 630.474 187.017C626.722 187.252 622.678 188.41 619.558 185.648C618.414 184.558 617.616 183.155 617.264 181.614C616.913 180.074 617.022 178.464 617.58 176.986C619.325 171.86 624.322 169.155 629.272 167.656C635.395 165.851 641.843 165.434 648.148 166.434C654.452 167.433 660.455 169.825 665.719 173.435C668.863 175.625 671.802 178.383 673.156 181.967C674.51 185.551 673.891 190.084 670.893 192.471C673.24 194.928 674.899 197.959 675.705 201.26C676.511 204.56 676.435 208.014 675.485 211.276C674.024 216.074 666.953 220.704 663.384 222.782Z" fill="#2F2E41"/>
</g>
<defs>
<clipPath id="clip0_17_272">
<rect width="812" height="552" fill="white"/>
</clipPath>
</defs>
</svg>
